# xmcd
#
# Track frame offsets: 
#        150
#        15831
#        30542
#        49737
#        65542
#        85972
#        105905
#        121158
#        135044
#        148383
#        164587
#
# Disc length: 2405 seconds
#
# Revision: 0
# Processed by: cddbd v1.5.1PL0 Copyright (c) Steve Scherf et al.
# Submitted via: ExactAudioCopy v0.95b2
#
DISCID=8509630b
DTITLE=Laura - T‰ss‰ hetkess‰
DYEAR=2005
DGENRE=Country
TTITLE0=Tyhj‰‰ puolillaan
TTITLE1=Kotiinpalaava
TTITLE2=Pid‰ huolta
TTITLE3=Padot aukeaa
TTITLE4=Eksynyt
TTITLE5=Pyyd‰ vaan
TTITLE6=Heikoksi teet
TTITLE7=T‰ysi tuuli
TTITLE8=Jos t‰nne j‰‰n
TTITLE9=Lenn‰
TTITLE10=T‰ss‰ hetkess‰
EXTD=
EXTT0=
EXTT1=
EXTT2=
EXTT3=
EXTT4=
EXTT5=
EXTT6=
EXTT7=
EXTT8=
EXTT9=
EXTT10=
PLAYORDER=
